<?xml version="1.0" encoding="utf-8"?>
<!-- Generator: Adobe Illustrator 16.0.0, SVG Export Plug-In . SVG Version: 6.00 Build 0)  -->
<!DOCTYPE svg PUBLIC "-//W3C//DTD SVG 1.1//EN" "http://www.w3.org/Graphics/SVG/1.1/DTD/svg11.dtd">
<svg version="1.1" id="圖層_1" xmlns="http://www.w3.org/2000/svg" xmlns:xlink="http://www.w3.org/1999/xlink" x="0px" y="0px"
	 width="800px" height="500px" viewBox="0 0 800 500" enable-background="new 0 0 800 500" xml:space="preserve">
<circle fill="#0092FF" stroke="#FFFFFF" stroke-miterlimit="10" cx="224.287" cy="272.628" r="23.65"/>
<path fill="#0092FF" stroke="#FFFFFF" stroke-miterlimit="10" d="M208.113,288.873c0,0-8.173,12.273-10.259,23.407
	c-2.087,11.133-3.043,30.519-3.131,32.868c-0.086,2.347,43.823,2.089,45.649,0.958c1.826-1.135,0.198-20.324-1.438-32.282
	c-0.911-6.654-5.06-20.27-5.06-20.27"/>
<path stroke="#FFFFFF" stroke-miterlimit="10" d="M240.041,326.032c-0.291,1.448-1.699,2.38-3.144,2.092l-9.494-1.904
	c-1.447-0.291-2.382-1.7-2.092-3.146l3.644-18.145c0.292-1.445,1.698-2.383,3.146-2.092l9.493,1.908
	c1.447,0.291,2.383,1.697,2.093,3.146L240.041,326.032z"/>
<g>
	<path fill="#0092FF" stroke="#FFFFFF" stroke-miterlimit="10" d="M208.81,309.584c0,0-1.468,7.25-1.108,10.043
		c0.423,3.294,1.827,5.997,2.412,6.913c1.044,1.629,2.498,3.067,5.021,4.043c3.033,1.174,4.778,1.308,7.239,0.554
		c2.801-0.858,3.912-2.155,4.858-3.488c0.881-1.239,1.24-2.868,0.663-4.825c-0.389-1.321-1.838-2.063-3.214-3.012
		c-1.462-1.012-2.682-1.959-3.904-3.15c-0.946-0.922-3.163-3.229-3.685-5.118c-0.521-1.894-0.521-2.153-0.521-2.153"/>
	<path fill="#FFFFFF" stroke="#FFFFFF" stroke-miterlimit="10" d="M208.81,309.584c0,0-0.121,0.941-0.333,2.588
		c-0.103,0.825-0.213,1.825-0.313,2.973c-0.075,1.146-0.19,2.456-0.104,3.82c-0.006,0.674,0.236,1.352,0.389,2.121
		c0.132,0.771,0.438,1.466,0.698,2.201c0.246,0.734,0.652,1.469,1.021,2.195l0.315,0.526c0.047,0.072,0.119,0.212,0.142,0.23
		l0.197,0.262c0.269,0.329,0.514,0.743,0.812,1.013c1.04,1.23,2.683,2.043,4.315,2.634l1.336,0.438
		c0.437,0.11,0.852,0.148,1.277,0.231c0.42,0.116,0.856,0.061,1.288,0.05l0.649-0.019c0.216-0.036,0.433-0.099,0.649-0.146
		c0.409-0.113,0.92-0.163,1.249-0.317l1.322-0.521c0.772-0.414,1.435-0.831,2.036-1.476c0.323-0.271,0.555-0.674,0.837-1.002
		c0.174-0.232,0.467-0.762,0.643-1.109c0.064-0.372,0.249-0.688,0.259-1.093c-0.013-0.399,0.112-0.795,0-1.193
		c-0.083-0.374-0.112-0.846-0.227-1.135c-0.041-0.1-0.079-0.215-0.122-0.297l-0.125-0.183c-0.053-0.122-0.223-0.271-0.326-0.408
		c-0.524-0.545-1.226-0.996-1.894-1.472c-1.352-1-2.544-1.907-3.602-2.947c-1.097-0.963-1.921-1.988-2.626-2.931
		c-0.691-0.948-1.205-1.854-1.469-2.665c-0.265-0.815-0.317-1.456-0.427-1.896c-0.096-0.434-0.104-0.674-0.104-0.674
		s0.035,0.234,0.178,0.657c0.146,0.415,0.302,1.073,0.607,1.817c0.311,0.743,0.873,1.573,1.62,2.438
		c0.754,0.845,1.66,1.794,2.74,2.666c1.016,0.917,2.329,1.816,3.645,2.69c0.679,0.438,1.429,0.852,2.134,1.505
		c0.168,0.193,0.344,0.319,0.503,0.577l0.232,0.36c0.057,0.11,0.089,0.203,0.136,0.307c0.208,0.521,0.223,0.949,0.34,1.439
		c0.144,0.957,0.048,1.987-0.33,3.037c-0.229,0.462-0.364,0.761-0.711,1.287c-0.315,0.378-0.554,0.798-0.938,1.143
		c-0.663,0.743-1.604,1.357-2.496,1.816l-1.316,0.532c-0.54,0.234-0.994,0.266-1.498,0.402c-1.946,0.437-4.242,0.048-5.881-0.644
		c-1.845-0.68-3.593-1.607-4.855-3.146c-0.342-0.351-0.538-0.718-0.812-1.069l-0.19-0.267c-0.11-0.15-0.126-0.215-0.191-0.325
		l-0.318-0.6c-0.367-0.813-0.739-1.576-0.975-2.399c-0.245-0.813-0.527-1.604-0.617-2.356c-0.067-0.378-0.132-0.749-0.197-1.114
		c-0.027-0.195-0.074-0.328-0.084-0.574l-0.013-0.564c-0.034-1.482,0.198-2.771,0.37-3.924c0.196-1.146,0.388-2.139,0.558-2.954
		C208.561,310.501,208.81,309.584,208.81,309.584z"/>
</g>
<circle fill="#0092FF" stroke="#FFFFFF" stroke-miterlimit="10" cx="373.981" cy="271.934" r="23.651"/>
<path fill="#0092FF" stroke="#FFFFFF" stroke-miterlimit="10" d="M357.097,288.483c0,0-7.462,12.664-9.55,23.797
	c-2.087,11.133-3.043,30.519-3.13,32.868c-0.086,2.347,43.823,2.089,45.649,0.958c1.826-1.135,0.198-20.324-1.438-32.282
	c-0.91-6.654-5.059-20.27-5.059-20.27"/>
<path stroke="#FFFFFF" stroke-miterlimit="10" d="M396.283,329.176c-0.45,2.067-2.811,3.309-5.266,2.777l-16.138-3.523
	c-2.46-0.532-4.087-2.646-3.634-4.72l5.659-25.957c0.451-2.072,2.811-3.313,5.27-2.776l16.141,3.526
	c2.459,0.532,4.085,2.642,3.632,4.716L396.283,329.176z"/>
<g>
	<path fill="#0092FF" stroke="#FFFFFF" stroke-miterlimit="10" d="M358.503,309.584c0,0-1.468,7.25-1.108,10.043
		c0.424,3.294,1.828,5.997,2.413,6.913c1.043,1.629,2.497,3.067,5.022,4.043c3.032,1.174,4.778,1.308,7.237,0.554
		c2.803-0.858,3.912-2.155,4.859-3.488c0.879-1.239,1.239-2.868,0.662-4.825c-0.389-1.321-1.839-2.063-3.214-3.012
		c-1.462-1.012-2.681-1.959-3.904-3.15c-0.945-0.922-3.162-3.229-3.684-5.118c-0.522-1.894-0.522-2.153-0.522-2.153"/>
	<path fill="#FFFFFF" stroke="#FFFFFF" stroke-miterlimit="10" d="M358.503,309.584c0,0-0.121,0.941-0.333,2.588
		c-0.103,0.825-0.212,1.825-0.313,2.973c-0.075,1.145-0.189,2.456-0.103,3.82c-0.005,0.674,0.238,1.352,0.39,2.121
		c0.132,0.771,0.438,1.466,0.699,2.201c0.246,0.734,0.652,1.469,1.021,2.195l0.315,0.526c0.047,0.071,0.118,0.211,0.142,0.23
		l0.197,0.262c0.27,0.329,0.515,0.743,0.812,1.013c1.041,1.232,2.684,2.043,4.316,2.634l1.336,0.438
		c0.437,0.111,0.851,0.149,1.277,0.232c0.42,0.116,0.856,0.061,1.288,0.05l0.649-0.019c0.216-0.036,0.432-0.099,0.648-0.146
		c0.41-0.113,0.92-0.163,1.249-0.317l1.322-0.521c0.771-0.414,1.434-0.831,2.036-1.476c0.323-0.271,0.556-0.674,0.839-1.002
		c0.174-0.232,0.466-0.762,0.642-1.109c0.064-0.372,0.249-0.688,0.259-1.093c-0.015-0.399,0.11-0.794,0-1.193
		c-0.084-0.374-0.113-0.846-0.228-1.135c-0.041-0.1-0.08-0.215-0.122-0.295l-0.126-0.185c-0.053-0.122-0.223-0.271-0.325-0.408
		c-0.524-0.545-1.227-0.996-1.895-1.472c-1.352-1-2.544-1.907-3.601-2.947c-1.098-0.963-1.922-1.988-2.627-2.931
		c-0.691-0.948-1.205-1.854-1.469-2.667c-0.265-0.813-0.318-1.454-0.427-1.894c-0.097-0.434-0.105-0.674-0.105-0.674
		s0.035,0.234,0.179,0.657c0.147,0.413,0.303,1.073,0.608,1.817c0.311,0.743,0.874,1.573,1.619,2.438
		c0.754,0.845,1.66,1.794,2.739,2.666c1.018,0.917,2.33,1.816,3.646,2.69c0.678,0.438,1.429,0.852,2.135,1.505
		c0.168,0.193,0.343,0.319,0.503,0.577l0.232,0.361c0.057,0.109,0.089,0.202,0.135,0.306c0.209,0.521,0.225,0.949,0.342,1.439
		c0.143,0.957,0.047,1.987-0.33,3.037c-0.229,0.462-0.364,0.761-0.712,1.288c-0.314,0.377-0.554,0.797-0.938,1.142
		c-0.663,0.743-1.605,1.357-2.496,1.816l-1.318,0.532c-0.54,0.234-0.994,0.265-1.498,0.402c-1.946,0.437-4.241,0.048-5.881-0.644
		c-1.845-0.682-3.593-1.605-4.854-3.146c-0.342-0.351-0.539-0.718-0.813-1.069l-0.189-0.267c-0.109-0.15-0.126-0.215-0.191-0.325
		l-0.319-0.6c-0.366-0.813-0.74-1.576-0.975-2.399c-0.245-0.813-0.527-1.604-0.617-2.356c-0.067-0.378-0.133-0.749-0.198-1.114
		c-0.084-0.348-0.098-0.791-0.097-1.14c-0.034-1.482,0.198-2.771,0.37-3.924c0.197-1.146,0.388-2.14,0.559-2.954
		C358.254,310.501,358.503,309.584,358.503,309.584z"/>
</g>
<g>
	<path fill="#0092FF" stroke="#FFFFFF" stroke-miterlimit="10" d="M530.562,271.934c0,13.063-10.591,23.65-23.651,23.65
		c-13.059,0-23.648-10.587-23.648-23.65c0-13.061,10.591-23.649,23.648-23.649C519.971,248.283,530.562,258.873,530.562,271.934z"/>
	<path fill="#0092FF" stroke="#FFFFFF" stroke-miterlimit="10" d="M491.178,288.483c0,0-7.209,12.664-9.227,23.797
		c-2.015,11.133-2.938,30.519-3.021,32.868c-0.08,2.347,42.331,2.089,44.095,0.958c1.766-1.135,0.189-20.324-1.39-32.282
		c-0.879-6.654-4.887-20.27-4.887-20.27"/>
	<path stroke="#FFFFFF" stroke-miterlimit="10" d="M578.498,296.073l-47.05,5.166c-1.378,0.038-2.463,1.172-2.423,2.532
		l-2.785,33.217c0.039,1.358,1.188,2.43,2.565,2.388l24.762-2.72l0.657,6.175c-9.148,0.956-16.34,2.669-16.102,5.212
		c0.246,2.688,8.458,4.118,18.334,3.197c9.874-0.915,17.679-3.833,17.426-6.521c-0.218-2.382-6.522-2.866-14.833-2.305l-0.67-6.285
		l17.476-1.919c1.382-0.039,2.466-1.172,2.427-2.532l2.782-33.218C581.026,297.1,579.878,296.033,578.498,296.073z"/>
	<g>
		<path fill="#0092FF" stroke="#FFFFFF" stroke-miterlimit="10" d="M496.411,310.603c0,0-0.524,7.375,0.189,10.103
			c0.843,3.211,2.58,5.714,3.28,6.545c1.242,1.485,2.869,2.725,5.495,3.367c3.16,0.775,4.908,0.686,7.249-0.379
			c2.673-1.209,3.608-2.64,4.374-4.085c0.712-1.338,0.86-3.003,0.037-4.868c-0.557-1.259-2.091-1.812-3.574-2.575
			c-1.584-0.818-2.907-1.6-4.273-2.625c-1.058-0.792-3.553-2.796-4.312-4.603c-0.764-1.811-0.795-2.069-0.795-2.069"/>
		<path fill="#FFFFFF" stroke="#FFFFFF" stroke-miterlimit="10" d="M496.411,310.603c0,0,0,0.947,0.002,2.609
			c0.004,0.83,0.026,1.838,0.072,2.987c0.072,1.145,0.129,2.462,0.387,3.802c0.08,0.671,0.408,1.309,0.658,2.054
			c0.23,0.749,0.621,1.397,0.975,2.096c0.338,0.694,0.837,1.374,1.294,2.045l0.382,0.479c0.057,0.068,0.144,0.195,0.171,0.215
			l0.229,0.232c0.308,0.293,0.604,0.67,0.935,0.901c1.188,1.089,2.923,1.682,4.615,2.059l1.382,0.264
			c0.448,0.055,0.862,0.038,1.296,0.066c0.434,0.06,0.857-0.049,1.284-0.115l0.642-0.103c0.211-0.063,0.417-0.152,0.625-0.229
			c0.393-0.165,0.89-0.28,1.196-0.478l1.245-0.686c0.712-0.511,1.317-1.006,1.829-1.723c0.288-0.313,0.467-0.741,0.701-1.102
			c0.146-0.252,0.366-0.813,0.497-1.185c0.015-0.378,0.158-0.712,0.117-1.115c-0.065-0.396,0.008-0.804-0.155-1.186
			c-0.129-0.358-0.219-0.824-0.37-1.097c-0.052-0.092-0.106-0.198-0.158-0.274l-0.148-0.166c-0.067-0.116-0.255-0.241-0.375-0.363
			c-0.592-0.475-1.346-0.832-2.068-1.219c-1.469-0.819-2.767-1.565-3.947-2.463c-1.212-0.813-2.163-1.725-2.98-2.569
			c-0.81-0.849-1.433-1.682-1.8-2.454c-0.365-0.774-0.501-1.4-0.666-1.82c-0.151-0.417-0.19-0.657-0.19-0.657s0.063,0.229,0.26,0.63
			c0.2,0.392,0.439,1.023,0.839,1.724c0.402,0.699,1.066,1.45,1.917,2.209c0.854,0.742,1.877,1.568,3.061,2.293
			c1.127,0.778,2.544,1.505,3.96,2.203c0.729,0.348,1.528,0.662,2.31,1.221c0.192,0.169,0.382,0.271,0.574,0.507l0.274,0.328
			c0.071,0.102,0.114,0.189,0.176,0.286c0.271,0.488,0.343,0.913,0.521,1.383c0.265,0.934,0.303,1.966,0.062,3.056
			c-0.167,0.486-0.263,0.803-0.54,1.369c-0.262,0.413-0.445,0.861-0.779,1.252c-0.563,0.822-1.421,1.553-2.244,2.123l-1.237,0.694
			c-0.506,0.302-0.953,0.39-1.436,0.593c-1.874,0.681-4.2,0.589-5.913,0.115c-1.919-0.438-3.771-1.133-5.22-2.496
			c-0.385-0.304-0.627-0.644-0.943-0.957l-0.221-0.24c-0.128-0.134-0.152-0.194-0.232-0.298l-0.392-0.553
			c-0.469-0.762-0.935-1.469-1.275-2.258c-0.347-0.773-0.729-1.521-0.914-2.256c-0.112-0.366-0.228-0.726-0.339-1.08
			c-0.052-0.19-0.115-0.315-0.156-0.56l-0.085-0.56c-0.226-1.467-0.159-2.773-0.139-3.938c0.048-1.163,0.111-2.172,0.175-3.001
			C496.283,311.544,496.411,310.603,496.411,310.603z"/>
	</g>
</g>
<path fill="#BCBCBC" stroke="#000000" stroke-miterlimit="10" d="M596.864,51.865c0,0,0.115,99.826-0.146,101.171
	c0.173,1.647,0.607,2.168,1.735,3.252c1.126,1.084,9.105,6.072,13.4,7.677c4.295,1.604,14.153,4.366,19.705,4.945
	c5.195,0.541,11.607,0.563,13.356,0.063c1.733-0.636,3.803-2.275,4.672-2.97c0.867-0.693,12.563-10.973,12.563-10.973l25.258-20.872
	c0,0,1.863-94.842,0.416-96.173c-2.593-2.386-9.665-4.295-16.055-5.582c-5.5-1.108-16.639-2.924-18.107-3.15
	c-0.973-0.15-1.747-0.174-4.234,0.173c-2.484,0.347-50.252,18.563-50.367,18.794C598.947,48.453,596.86,48.105,596.864,51.865z"/>
<path fill="#0092FF" d="M592.296,56.317"/>
<path fill="#D8D8D8" d="M644.147,67.167c0,0-0.53,99.674-0.098,101.266c2.52-0.276,7.964-5.235,8.94-6.063
	c2.477-2.098,8.61-7.513,8.61-7.513l25.596-20.691c0,0,0.762-92.996-0.163-95.652c-4.8,2.141-7.083,3.44-13.965,7.489
	c-4.835,2.845-26.739,13.672-28.9,14.768C644.053,62.303,644.143,63.407,644.147,67.167z"/>
<g>
	<path fill="#424242" d="M606.938,70.09c0,0,7.236,1.535,14.451,3.158c1.809,0.394,3.617,0.773,5.307,1.167
		c0.838,0.22,1.653,0.407,2.418,0.63c0.765,0.217,1.486,0.421,2.155,0.61c0.668,0.186,1.271,0.392,1.812,0.555
		c0.54,0.166,1.009,0.317,1.393,0.452c0.77,0.258,1.204,0.423,1.204,0.423l-0.022,0.097c0,0-0.463-0.053-1.266-0.178
		c-0.401-0.056-0.889-0.137-1.442-0.238c-0.555-0.103-1.187-0.198-1.864-0.34c-0.68-0.139-1.416-0.29-2.195-0.449
		c-0.779-0.152-1.592-0.362-2.438-0.552c-1.68-0.426-3.462-0.921-5.247-1.402c-7.154-1.875-14.287-3.839-14.287-3.839L606.938,70.09
		z"/>
</g>
<g>
	<path fill="#424242" d="M606.938,59.576c0,0,7.236,1.535,14.451,3.159c1.809,0.394,3.617,0.773,5.307,1.167
		c0.838,0.22,1.653,0.407,2.418,0.63c0.765,0.217,1.486,0.421,2.155,0.61c0.668,0.186,1.271,0.392,1.812,0.555
		c0.54,0.166,1.009,0.317,1.393,0.452c0.77,0.258,1.204,0.423,1.204,0.423l-0.022,0.098c0,0-0.463-0.054-1.266-0.179
		c-0.401-0.056-0.889-0.137-1.442-0.238c-0.555-0.103-1.187-0.198-1.864-0.34c-0.68-0.139-1.416-0.29-2.195-0.449
		c-0.779-0.152-1.592-0.362-2.438-0.552c-1.68-0.426-3.462-0.921-5.247-1.402c-7.154-1.875-14.287-3.839-14.287-3.838
		L606.938,59.576z"/>
</g>
<g>
	<path fill="#424242" d="M606.938,80.608c0,0,7.236,1.535,14.451,3.159c1.809,0.394,3.617,0.773,5.307,1.167
		c0.838,0.22,1.653,0.407,2.418,0.631c0.765,0.216,1.486,0.421,2.155,0.61c0.668,0.186,1.271,0.392,1.812,0.555
		c0.54,0.165,1.009,0.317,1.393,0.452c0.77,0.258,1.204,0.423,1.204,0.423l-0.022,0.098c0,0-0.463-0.054-1.266-0.179
		c-0.401-0.056-0.889-0.137-1.442-0.238c-0.555-0.103-1.187-0.198-1.864-0.34c-0.68-0.139-1.416-0.29-2.195-0.449
		c-0.779-0.152-1.592-0.362-2.438-0.552c-1.68-0.426-3.462-0.921-5.247-1.402c-7.154-1.875-14.287-3.839-14.287-3.839
		L606.938,80.608z"/>
</g>
<g>
	<path fill="#424242" d="M606.938,90.271c0,0,7.236,1.535,14.451,3.158c1.809,0.394,3.617,0.773,5.307,1.167
		c0.838,0.22,1.653,0.407,2.418,0.63c0.765,0.217,1.486,0.421,2.155,0.61c0.668,0.186,1.271,0.392,1.812,0.555
		c0.54,0.166,1.009,0.317,1.393,0.452c0.77,0.258,1.204,0.423,1.204,0.423l-0.022,0.098c0,0-0.463-0.054-1.266-0.179
		c-0.401-0.056-0.889-0.137-1.442-0.238c-0.555-0.104-1.187-0.198-1.864-0.34c-0.68-0.139-1.416-0.29-2.195-0.449
		c-0.779-0.152-1.592-0.362-2.438-0.552c-1.68-0.426-3.462-0.921-5.247-1.402c-7.154-1.875-14.287-3.838-14.287-3.838
		L606.938,90.271z"/>
</g>
<g>
	<path fill="#424242" d="M606.938,99.332c0,0,7.236,1.535,14.451,3.159c1.809,0.394,3.617,0.773,5.307,1.167
		c0.838,0.22,1.653,0.407,2.418,0.63c0.765,0.217,1.486,0.421,2.155,0.61c0.668,0.186,1.271,0.392,1.812,0.555
		c0.54,0.166,1.009,0.317,1.393,0.452c0.77,0.258,1.204,0.423,1.204,0.423l-0.022,0.098c0,0-0.463-0.054-1.266-0.179
		c-0.401-0.056-0.889-0.137-1.442-0.238c-0.555-0.103-1.187-0.198-1.864-0.34c-0.68-0.139-1.416-0.29-2.195-0.449
		c-0.779-0.152-1.592-0.362-2.438-0.552c-1.68-0.426-3.462-0.921-5.247-1.402c-7.154-1.875-14.287-3.839-14.287-3.838
		L606.938,99.332z"/>
</g>
<g>
	<path fill="#424242" d="M635.673,101.15c0,0-0.086-8.501-0.082-17.001c-0.007-2.125-0.015-4.25-0.021-6.243
		c0.03-0.996,0.034-1.958,0.086-2.871c0.044-0.913,0.085-1.775,0.124-2.571c0.034-0.796,0.104-1.526,0.145-2.173
		c0.043-0.646,0.089-1.21,0.138-1.674c0.083-0.929,0.148-1.459,0.148-1.459l0.101,0.002c0,0,0.05,0.532,0.103,1.462
		c0.034,0.465,0.062,1.03,0.084,1.678c0.021,0.648,0.066,1.379,0.076,2.176c0.014,0.797,0.028,1.66,0.043,2.574
		c0.021,0.914-0.005,1.876-0.005,2.872c-0.07,1.991-0.146,4.115-0.219,6.239c-0.266,8.496-0.619,16.991-0.619,16.991L635.673,101.15
		z"/>
</g>
<g>
	<path fill="#FFFFFF" d="M601.629,108.072c0,0-0.061-12.418-0.121-24.837c-0.013-3.104-0.024-6.209-0.037-9.12
		c0.029-1.455,0.03-2.861,0.08-4.195c0.041-1.333,0.081-2.595,0.117-3.758c0.033-1.164,0.102-2.23,0.142-3.176
		c0.041-0.946,0.085-1.77,0.133-2.449c0.093-1.357,0.146-2.133,0.146-2.133l0.101,0.001c0,0,0.039,0.776,0.105,2.135
		c0.034,0.679,0.063,1.504,0.088,2.45c0.022,0.946,0.069,2.014,0.081,3.178c0.017,1.164,0.031,2.426,0.049,3.76
		c0.024,1.334,0,2.741,0.002,4.196c-0.064,2.91-0.136,6.014-0.204,9.118c-0.289,12.415-0.579,24.83-0.579,24.83L601.629,108.072z"/>
</g>
<g>
	<path fill="#FFFFFF" d="M644.001,167.983c0,0-0.175-26.805-0.351-53.61c-0.042-6.702-0.114-13.403-0.098-19.686
		c0.008-3.141-0.022-6.178,0.018-9.057c0.029-2.879,0.058-5.602,0.084-8.115c0.13-10.052,0.347-16.753,0.347-16.753h0.1
		c0,0,0.218,6.701,0.348,16.753c0.025,2.513,0.054,5.235,0.084,8.115c0.04,2.879,0.009,5.916,0.017,9.057
		c0.019,6.283-0.055,12.984-0.097,19.686c-0.176,26.805-0.352,53.61-0.352,53.61H644.001z"/>
</g>
<g>
	<path fill="#FFFFFF" d="M601.919,108.025c0,0,8.277,1.839,16.531,3.766c2.064,0.474,4.132,0.947,6.067,1.391
		c0.96,0.256,1.896,0.477,2.77,0.733c0.876,0.25,1.705,0.485,2.47,0.702c0.766,0.214,1.458,0.446,2.077,0.633
		c0.618,0.188,1.155,0.36,1.595,0.512c0.883,0.291,1.383,0.475,1.383,0.475l-0.022,0.097c0,0-0.528-0.072-1.444-0.23
		c-0.46-0.073-1.015-0.174-1.647-0.298c-0.636-0.126-1.354-0.247-2.131-0.418c-0.777-0.167-1.619-0.349-2.511-0.541
		c-0.893-0.185-1.82-0.429-2.788-0.654c-1.918-0.519-3.964-1.071-6.01-1.625c-8.192-2.179-16.361-4.446-16.361-4.446
		L601.919,108.025z"/>
</g>
<g>
	<path fill="#FFFFFF" d="M599.627,50.143c0,0,11.16,2.401,22.299,4.891c2.787,0.614,5.573,1.228,8.187,1.804
		c1.299,0.321,2.56,0.606,3.745,0.923c1.187,0.31,2.309,0.603,3.344,0.873c1.036,0.267,1.979,0.547,2.816,0.777
		c0.84,0.231,1.568,0.44,2.166,0.624c1.197,0.364,1.882,0.572,1.882,0.572l-0.023,0.098c0,0-0.705-0.119-1.938-0.327
		c-0.616-0.104-1.362-0.242-2.217-0.409c-0.854-0.169-1.82-0.338-2.867-0.562c-1.049-0.22-2.184-0.458-3.384-0.711
		c-1.2-0.245-2.457-0.553-3.763-0.844c-2.595-0.651-5.363-1.345-8.131-2.039c-11.08-2.742-22.139-5.572-22.139-5.572L599.627,50.143
		z"/>
</g>
<g>
	<path fill="#FFFFFF" d="M684.534,39.666c0,0-10.014,5.48-20.067,10.881c-2.51,1.358-5.019,2.715-7.372,3.988
		c-1.191,0.606-2.332,1.215-3.437,1.75c-1.101,0.542-2.141,1.054-3.101,1.526c-0.959,0.476-1.854,0.879-2.64,1.254
		c-0.786,0.373-1.475,0.692-2.046,0.945c-1.145,0.507-1.797,0.797-1.797,0.797l-0.047-0.089c0,0,0.61-0.371,1.681-1.02
		c0.534-0.325,1.188-0.708,1.944-1.14c0.756-0.431,1.599-0.936,2.535-1.451c0.938-0.518,1.95-1.08,3.023-1.674
		c1.069-0.6,2.221-1.188,3.398-1.822c2.389-1.205,4.937-2.49,7.483-3.774c10.175-5.17,20.392-10.261,20.392-10.261L684.534,39.666z"
		/>
</g>
<g>
	<path fill="#444444" d="M629.753,144.843c0,0-0.398-0.035-1.085-0.136c-0.68-0.121-1.672-0.227-2.826-0.475
		c-1.153-0.254-2.521-0.474-3.946-0.848c-1.428-0.367-2.949-0.759-4.473-1.151c-1.502-0.465-3.004-0.931-4.412-1.367
		c-1.409-0.433-2.688-0.958-3.805-1.348c-1.113-0.395-2.014-0.823-2.656-1.076c-0.638-0.274-0.995-0.453-0.995-0.453l0.027-0.097
		c0,0,6.057,1.689,12.112,3.379c6.043,1.737,12.086,3.474,12.086,3.474L629.753,144.843z"/>
</g>
<g>
	<path fill="#444444" d="M626.155,149.251c0,0-0.284,0.004-0.771-0.029c-0.482-0.05-1.187-0.072-2.008-0.187
		c-0.824-0.101-1.776-0.253-2.788-0.454c-0.504-0.108-1.03-0.193-1.554-0.328c-0.525-0.126-1.061-0.255-1.593-0.383
		c-1.06-0.293-2.117-0.581-3.097-0.909c-0.981-0.31-1.877-0.688-2.654-0.967c-0.777-0.281-1.4-0.615-1.849-0.802
		c-0.442-0.208-0.688-0.349-0.688-0.349l0.024-0.097c0,0,4.257,1.078,8.515,2.156c4.243,1.126,8.487,2.252,8.487,2.252
		L626.155,149.251z"/>
</g>
<g>
	<path fill="#444444" d="M623.509,153.516c0,0-0.898,0.065-2.192-0.056c-0.649-0.052-1.397-0.149-2.19-0.29
		c-0.394-0.078-0.808-0.132-1.216-0.236c-0.411-0.095-0.828-0.191-1.245-0.288c-0.824-0.229-1.65-0.453-2.41-0.722
		c-0.763-0.257-1.466-0.53-2.062-0.795c-1.193-0.513-1.953-1-1.953-1l0.024-0.097c0,0,3.323,0.822,6.646,1.645
		c3.312,0.871,6.623,1.742,6.623,1.742L623.509,153.516z"/>
</g>
<g>
	<path fill="#444444" d="M628.164,144.698c0,0-0.356-0.023-0.969-0.105c-0.607-0.098-1.489-0.189-2.522-0.386
		c-1.037-0.183-2.236-0.431-3.513-0.735c-0.635-0.159-1.299-0.297-1.96-0.486c-0.664-0.18-1.338-0.363-2.012-0.546
		c-1.339-0.402-2.678-0.798-3.916-1.228c-1.244-0.412-2.381-0.884-3.366-1.244c-0.986-0.363-1.779-0.763-2.349-0.997
		c-0.563-0.255-0.878-0.422-0.878-0.423l0.027-0.096c0,0,5.378,1.513,10.756,3.026c5.363,1.562,10.728,3.123,10.728,3.123
		L628.164,144.698z"/>
</g>
<path fill="#2F65B2" stroke="#000000" stroke-miterlimit="10" d="M713.735,115.302c0,22.037-17.863,39.901-39.903,39.901
	c-22.038,0-39.9-17.865-39.9-39.901c0-22.036,17.862-39.902,39.9-39.902C695.872,75.4,713.735,93.266,713.735,115.302z"/>
<circle fill="none" stroke="#6C9BD3" stroke-miterlimit="10" cx="673.833" cy="115.302" r="38.167"/>
<circle fill="none" stroke="#6C9BD3" stroke-miterlimit="10" cx="673.833" cy="115.302" r="37.01"/>
<path fill="#97CC5B" stroke="#000000" stroke-width="0.5" stroke-miterlimit="10" d="M645.522,107.885c0,0-1.097,0.579-2.311,1.183
	c-1.215,0.604-2.081,1.466-2.081,1.725s-0.434,2.416-0.434,2.416l1.56,0.691h1.995l1.043,1.466c0,0,0.173,0.345,0.606,0.949
	s-0.435,1.897,0.78,1.897c1.214,0,1.301,1.036,1.733,0.604c0.433-0.431,0.087,0,0.954-0.604c0.869-0.604,1.563-0.776,2.429-0.776
	c0.868,0,1.301-0.259,2.428,0.172c1.131,0.432,1.911,0.69,2.691,0.949c0.779,0.259,0.952,1.035,0.952,1.467
	c0,0.431,0.521,1.38,0.955,1.554c0.436,0.171,0.694,0.257,1.735,0.776c1.04,0.517,0.174,1.553,1.301,1.639
	c1.128,0.086,1.994-0.086,2.344,0.604c0.347,0.689-0.176,0.604,1.128,1.122c1.3,0.518,1.473,0.691,1.473,1.122
	c0,0.432,1.562,0.604,1.562,0.604s0.956-0.258,1.13,0.776c0.173,1.036,0.692,2.157,0,2.76c-0.695,0.605-1.736,1.727-1.65,2.33
	c0.087,0.604-0.086,0.949,0.087,1.898s-0.173,1.639-0.173,2.156c0,0.518,0.606,1.036-0.261,1.726
	c-0.866,0.69-2.688,0.345-2.86,1.034c-0.175,0.69-0.694,1.122-0.348,1.985c0.348,0.862-0.173,0.776-0.522,1.38
	c-0.346,0.604-1.213,1.035-1.213,1.553c0,0.517-0.26,0.172-1.128,1.121c-0.866,0.949-1.56,0.519-1.56,1.295
	s-0.521,1.466-0.521,1.726c0,0.258-4.599-2.243-5.38-3.193c-0.78-0.948-0.692-0.69-0.521-2.156c0.173-1.467-0.521-4.573-0.954-5.609
	c-0.435-1.034-0.086-2.243-1.388-2.674c-1.301-0.431-2.084-1.381-2.258-1.898c-0.173-0.518-1.387-2.675-1.731-2.675
	c-0.349,0-0.955-1.121-0.781-2.07c0.175-0.949-0.26-2.33,0.521-3.451c0.781-1.121,1.733-1.466,1.475-2.588
	c-0.26-1.122-0.521-0.604-2.168-1.552c-1.649-0.949-2.949-2.588-3.036-2.933c-0.086-0.345-1.475-0.345-1.475-0.345
	s-1.039,0-1.646-0.259c-0.609-0.259-1.391-1.294-2.084-2.416c-0.693-1.121-0.693-6.297-0.693-6.297s1.024-5.114,2.08-7.851
	c1.737-4.487,5.542-8.99,8.242-11.992c3.634-4.038,10.38-7.492,14.313-8.627c3.716-1.072,12.441-1.339,14.747-1.121
	c1.82,0.172,1.834,0.138,3.383,0.776c1.764,0.728,0.954,0.949,0.954,0.949l-1.994,0.518c0,0-0.174,0.431-0.262,0.949
	c-0.088,0.519-0.521,1.38-0.521,1.38l-0.781,1.036l-1.993,1.122l-2.862,0.776l-1.477,1.035l-0.778,1.554l-0.435,1.208l-1.563,0.172
	c0,0-0.607-1.64-0.607-1.898c0-0.259-0.347-1.64-1.213-1.64c-0.868,0-1.041-0.776-1.041-0.776s0.606-1.726,0.866-1.812
	c0.261-0.086-1.126-2.071-1.126-2.071l-2.604,0.432c0,0-0.866,1.035-0.866,1.293c0,0.259,1.301,1.208,1.301,1.208l1.302,1.121
	l-1.735,1.553l-1.734,0.862l-0.779,0.517c0,0,0.086,0.864,0.086,1.123c0,0.258,2.775,2.329,2.775,2.329s0.156,1.952,0.434,2.2
	c0.394,0.349,0.563,1.381,0.26,1.769c-0.304,0.388-2.947-0.259-2.947-0.259l-2.604,2.833l-3.904,1.912c0,0-3.034,2.415-3.12,2.761
	c-0.087,0.345-1.475,1.553-1.388,2.071c0.086,0.517,0.086,2.07,0,2.588c-0.087,0.517-2.084,0.517-2.084,0.517l-1.561-1.38
	L645.522,107.885z"/>
<path fill="#97CC5B" stroke="#000000" stroke-width="0.5" stroke-miterlimit="10" d="M690.032,83.838l-3.829,0.818
	c0,0-1.783,1.626-1.791,1.915c-0.008,0.29-1.378,1.639-0.813,2.061c0.568,0.422,1.938,1.04,2.575,0.941
	c0.641-0.099,1.757-0.646,1.757-0.646l1.207-1.875c0,0,1.536-1.054,1.523-0.592c-0.012,0.462-0.289,1.958-0.289,1.958
	s-1.386,2.044-1.564,2.153c-0.175,0.111-2.439,0.336-2.439,0.336s-1.653-0.858-1.826-0.862c-0.174-0.005-1.012,0.896-1.165,1.24
	c-0.152,0.342-1.582-0.277-1.582-0.277s-2.207,1.094-2.058,1.561c0.147,0.467,0.948,0.721,1.58,1.028
	c0.627,0.308,1.557,0.277,0.959,0.837c-0.595,0.562-2.02,1.794-2.02,1.794s-0.954,1.014-1.142,1.472
	c-0.188,0.457-1.701,0.819-1.876,0.93c-0.178,0.111-0.898,1.074-0.854,1.479c0.044,0.407,0.334,0.474,1.366,0.733
	c1.034,0.261,0.475,0.419,1.729,0.628c1.253,0.21,2.239,0.122,2.658-0.329c0.421-0.451,1.744-2.265,1.744-2.265
	s0.9-1.159,1.862-0.452s1.347,1.412,1.638,1.42c0.288,0.009,1.112-0.489,1.112-0.489s0.583-0.157,0.565,0.537
	c-0.021,0.694-0.725,1.976,0.206,1.771c0.932-0.206,1.01-1.852,1.01-1.852s0.381-1.147,0.82-0.439
	c0.443,0.707,0.487,1.229,0.366,1.399c-0.121,0.169,0.489,1.132,0.489,1.132l0.646-0.348l0.285-1.843c0,0,0.572,0.19,0.663,1.061
	s0.014,1.563,0.533,1.578s2.96,0.691,2.947,1.096c-0.014,0.404-1.675,0.82-1.675,0.82s-3.466-0.071-4.051,0.086
	c-0.582,0.157-1.594,1.168-1.88,1.103c-0.29-0.065-1.193-0.785-1.351-1.369c-0.157-0.583-1.344-1.6-2.438-1.747
	c-1.096-0.147-3.223-0.613-3.223-0.613l-1.824,1.105c0,0-1.404,0.539-1.76,0.818c-0.354,0.279-3.177,1.818-3.588,2.038
	c-0.409,0.22-1.951,1.506-2.209,2.425c-0.259,0.918-1.495,3.716-1.406,4.646c0.09,0.929,0.098,2.607,0.546,3.198
	c0.447,0.591,1.518,1.605,1.95,2.659c0.43,1.054,1.043,1.938,1.555,2.243c0.512,0.304,0.263,0.934,0.715,1.294
	c0.452,0.359,2.482,0.533,2.482,0.533s1.111-0.777,1.063-1.126c-0.049-0.349,0.369-0.858,0.771-0.73
	c0.401,0.127,0.732,0.772,1.317,0.5c0.586-0.272,1.398-0.48,1.615,0.046c0.218,0.526,1.138,1.247,1.701,1.495
	s-0.597,1.43-0.348,1.784s0.889,1.298,1.521,1.432c0.632,0.134,0.313,1.167,0.287,2.091c-0.026,0.924,0.142,1.218,0.405,2.094
	c0.261,0.875-0.438,1.086-0.639,2.064c-0.202,0.978-0.878,2.231-0.814,3.1c0.063,0.871,0.141,3.342,0.465,4.045
	c0.328,0.704,0.587,1.753,0.574,2.215c-0.012,0.463,0.221,0.411,0.595,1.462c0.376,1.053,1.143,0.554,1.272,2.12
	c0.127,1.565,0.305,2.119,1.185,2.174c1.024,0.064,1.709,0.014,3.123-1.097c1.04-0.818,4.372-3.259,4.93-4.458
	c0.552-1.199,1.152-1.875,0.877-2.347c-0.277-0.471-1.563-0.045-1.247-0.903c0.312-0.859,1.498-2.947,2.447-3.788
	c0.949-0.841,0.555-3.166,0.57-3.744c0.017-0.579-0.017-3.529,0.229-3.985c0.247-0.456,0.939-0.438,1.824-1.047
	c0.888-0.61,0.438-1.144,0.635-2.006c0.198-0.862,0.354-2.247,1.356-2.913c1.003-0.666,1.598-3.251,0.917-3.733
	s-0.795-0.601-2.586-0.595c-1.794,0.007-1.817,0.815-2.25-0.296c-0.429-1.111-0.532-3.602-1.21-4.2
	c-0.677-0.598-2.584-2.678-2.571-3.082c0.011-0.404,0.082-0.923,0.538-0.678c0.459,0.244,1.012,1.186,1.282,1.714
	c0.274,0.529,2.313,4.125,2.237,4.726c-0.076,0.6,0.015,1.529,0.829,1.377c0.813-0.15,2.015,0.347,3.065-0.085
	c1.057-0.432,1.898-1.507,2.256-1.96c0.36-0.453,1.25-1.18,1.268-1.758c0.016-0.577,0.404-2.071-0.745-2.277
	c-1.151-0.207-2.294-0.76-2.518-1.055c-0.223-0.296-0.778-1.064-0.715-1.351c0.066-0.288,0.275,0.528,1.085,0.552
	c0.81,0.022,2.076,0.233,2.066,0.579c-0.011,0.347,0.935,1.416,0.935,1.416s0.127,1.913,0.235,2.205
	c0.104,0.292-0.034,1.185,0.669,0.901c0.702-0.284,0.735-1.145,0.739-1.584c0.052-3.874-2.948-11.279-5.584-15.755
	c-2.219-3.761-7.319-10.336-11.945-12.608C691.829,83.24,690.032,83.838,690.032,83.838z"/>
<path fill="#2F65B2" stroke="#000000" stroke-width="0.5" stroke-miterlimit="10" d="M648.85,91.361l-0.778,0.867l0.778,0.694
	l1.479,0.867c0,0,0.779,0.954,0.779,1.301c0,0.347,0.866,0.607,0.866,0.607l0.781-2.168l1.214-1.215l1.39-1.388l1.214-0.434
	l1.127,0.607c0,0,0.434,0.521,0.692,0.26c0.262-0.26,1.266-1.415,1.266-1.415l-1.004-0.667l-0.781-1.735l-0.52-0.868h-1.562
	l-1.214,1.735l-1.649,0.868l-1.041-0.434l-2.253,1.301L648.85,91.361z"/>
<g>
	<path fill="#FFFFFF" d="M685.604,167.478c0-0.359-0.188-0.691-0.498-0.869l-8.269-4.756c-0.141-0.083-0.296-0.125-0.457-0.132
		c-0.014,0-0.073,0-0.084,0c-0.158,0.007-0.313,0.05-0.456,0.132l-8.268,4.756c-0.309,0.178-0.5,0.509-0.5,0.869l0.019,12.811
		c0,0.177,0.093,0.343,0.25,0.43c0.152,0.092,0.342,0.092,0.495,0l4.914-2.812c0.311-0.185,0.499-0.511,0.499-0.867v-5.985
		c0-0.355,0.19-0.687,0.497-0.863l2.094-1.206c0.156-0.089,0.326-0.134,0.502-0.134c0.169,0,0.342,0.045,0.495,0.134l2.091,1.206
		c0.312,0.177,0.5,0.508,0.5,0.863v5.985c0,0.356,0.192,0.684,0.5,0.867l4.913,2.812c0.152,0.092,0.346,0.092,0.497,0
		c0.152-0.087,0.25-0.252,0.25-0.43L685.604,167.478z"/>
	<path fill="#FFFFFF" d="M729.749,149.866c-0.156-0.085-0.345-0.084-0.497,0.007c-0.151,0.089-0.246,0.252-0.246,0.431v12.686
		c0,0.125-0.065,0.241-0.174,0.303c-0.109,0.063-0.243,0.063-0.351,0l-2.071-1.192c-0.31-0.178-0.689-0.178-0.998,0l-8.271,4.773
		c-0.307,0.177-0.495,0.507-0.495,0.865v9.547c0,0.357,0.188,0.685,0.495,0.865l8.271,4.775c0.309,0.179,0.688,0.179,0.998,0
		l8.271-4.775c0.312-0.18,0.501-0.508,0.501-0.865v-23.8c0-0.362-0.195-0.696-0.512-0.872L729.749,149.866z M728.981,174.149
		c0,0.089-0.049,0.17-0.124,0.216L726.015,176c-0.076,0.046-0.169,0.046-0.248,0l-2.838-1.636c-0.079-0.045-0.126-0.127-0.126-0.216
		v-3.278c0-0.09,0.047-0.171,0.123-0.216l2.841-1.641c0.079-0.044,0.172-0.044,0.25,0l2.842,1.641
		c0.075,0.045,0.124,0.126,0.124,0.216L728.981,174.149L728.981,174.149z"/>
	<path fill="#FFFFFF" d="M759.337,170.784c0.308-0.179,0.496-0.507,0.496-0.863v-2.315c0-0.356-0.188-0.686-0.496-0.863
		l-8.219-4.771c-0.309-0.18-0.69-0.18-1.002-0.002l-8.267,4.773c-0.308,0.179-0.499,0.509-0.499,0.865v9.545
		c0,0.359,0.191,0.69,0.503,0.867l8.217,4.683c0.304,0.173,0.679,0.174,0.979,0.004l4.971-2.761
		c0.157-0.089,0.257-0.254,0.257-0.434c0-0.18-0.096-0.348-0.248-0.437l-8.321-4.776c-0.156-0.087-0.251-0.254-0.251-0.432v-2.992
		c0-0.177,0.095-0.343,0.251-0.432l2.59-1.495c0.152-0.088,0.344-0.088,0.497,0l2.591,1.495c0.154,0.089,0.25,0.254,0.25,0.432
		v2.354c0,0.178,0.095,0.343,0.25,0.432c0.154,0.091,0.345,0.089,0.501-0.001L759.337,170.784z"/>
	<path fill="#8CC84B" d="M700.643,161.92c0.31-0.178,0.69-0.178,1,0l8.271,4.772c0.307,0.179,0.496,0.509,0.496,0.864v9.553
		c0,0.356-0.189,0.686-0.496,0.865l-8.271,4.774c-0.31,0.18-0.69,0.18-1,0l-8.268-4.774c-0.31-0.179-0.498-0.509-0.498-0.865v-9.553
		c0-0.355,0.188-0.685,0.498-0.864L700.643,161.92z"/>
	<path fill="#8CC84B" d="M775.391,182.885c-0.283,0-0.566-0.073-0.813-0.219l-2.605-1.54c-0.388-0.218-0.197-0.295-0.069-0.34
		c0.521-0.179,0.624-0.221,1.177-0.535c0.058-0.032,0.135-0.02,0.193,0.015l2,1.188c0.073,0.039,0.177,0.039,0.24,0l7.799-4.5
		c0.073-0.042,0.118-0.125,0.118-0.211v-8.997c0-0.089-0.045-0.171-0.121-0.216l-7.794-4.497c-0.07-0.043-0.168-0.043-0.239,0
		l-7.791,4.498c-0.076,0.043-0.126,0.128-0.126,0.215v8.997c0,0.087,0.05,0.168,0.124,0.208l2.137,1.234
		c1.158,0.581,1.868-0.103,1.868-0.789v-8.884c0-0.126,0.102-0.226,0.228-0.226h0.988c0.125,0,0.227,0.099,0.227,0.226v8.884
		c0,1.547-0.843,2.433-2.312,2.433c-0.45,0-0.803,0-1.794-0.487l-2.046-1.176c-0.503-0.293-0.816-0.839-0.816-1.423v-8.997
		c0-0.586,0.313-1.133,0.816-1.422l7.8-4.506c0.492-0.278,1.147-0.278,1.638,0l7.796,4.506c0.507,0.292,0.82,0.836,0.82,1.422v8.997
		c0,0.584-0.313,1.128-0.82,1.423l-7.796,4.501C775.963,182.812,775.683,182.885,775.391,182.885z"/>
	<path fill="#8CC84B" d="M777.801,176.686c-3.413,0-4.127-1.566-4.127-2.88c0-0.125,0.1-0.224,0.226-0.224h1.008
		c0.113,0,0.206,0.081,0.226,0.191c0.149,1.026,0.607,1.544,2.669,1.544c1.644,0,2.344-0.373,2.344-1.245
		c0-0.503-0.2-0.875-2.752-1.126c-2.135-0.21-3.452-0.681-3.452-2.388c0-1.573,1.325-2.511,3.548-2.511
		c2.5,0,3.735,0.867,3.891,2.727c0.006,0.064-0.016,0.125-0.06,0.173c-0.041,0.046-0.103,0.073-0.163,0.073h-1.015
		c-0.103,0-0.197-0.075-0.219-0.176c-0.242-1.08-0.833-1.425-2.436-1.425c-1.792,0-2.001,0.624-2.001,1.093
		c0,0.566,0.246,0.731,2.668,1.053c2.396,0.316,3.535,0.764,3.535,2.448C781.689,175.713,780.271,176.686,777.801,176.686z"/>
	<g>
		<path fill="#8CC84B" d="M788.552,161.838v0.23h-0.652v1.71h-0.268v-1.71h-0.654v-0.23H788.552z"/>
		<path fill="#8CC84B" d="M788.787,161.838h0.376l0.561,1.64l0.554-1.64h0.375v1.94h-0.253v-1.145c0-0.042,0-0.105,0.003-0.196
			c0.002-0.093,0.004-0.193,0.004-0.296l-0.556,1.638h-0.26l-0.562-1.638v0.058c0,0.048,0,0.121,0.004,0.219
			c0.002,0.098,0.006,0.169,0.006,0.216v1.145h-0.252V161.838L788.787,161.838z"/>
	</g>
	<path fill="#8CC84B" d="M750.497,170.336c0.059-0.035,0.132-0.035,0.191,0l1.587,0.916c0.062,0.035,0.096,0.097,0.096,0.166v1.832
		c0,0.07-0.034,0.132-0.096,0.167l-1.587,0.917c-0.061,0.032-0.134,0.032-0.191,0l-1.586-0.917
		c-0.061-0.035-0.095-0.097-0.095-0.167v-1.832c0-0.069,0.034-0.131,0.095-0.166L750.497,170.336z"/>
</g>
<path fill="#FFFFFF" stroke="#DBDBDB" stroke-width="1.5" stroke-miterlimit="10" d="M332.944,129.55
	c0,3.066-2.352,5.552-5.254,5.552H182.517c-2.903,0-5.256-2.486-5.256-5.552V38.991c0-3.066,2.353-5.552,5.256-5.552H327.69
	c2.902,0,5.254,2.486,5.254,5.552V129.55z"/>
<path stroke="#FFFFFF" stroke-miterlimit="10" d="M343.616,112.049c0.418,0.643,0.238,1.504-0.404,1.922l-2.906,1.896
	c-0.641,0.419-1.502,0.238-1.921-0.404l-12.286-18.82c-0.419-0.643-0.238-1.503,0.404-1.921l2.906-1.896
	c0.641-0.419,1.501-0.239,1.919,0.403L343.616,112.049z"/>
<circle fill="#FF9E5C" stroke="#FFFFFF" stroke-miterlimit="10" cx="370.11" cy="80.697" r="23.651"/>
<path fill="#FF9E5C" stroke="#FFFFFF" stroke-miterlimit="10" d="M386.993,97.247c0,0,7.463,12.665,9.55,23.797
	c2.085,11.132,3.043,30.519,3.129,32.868c0.086,2.347-43.822,2.088-45.648,0.958c-1.825-1.133-0.198-20.325,1.437-32.283
	c0.911-6.653,5.06-20.268,5.06-20.268"/>
<g>
	<path fill="#FF9E5C" stroke="#FFFFFF" stroke-miterlimit="10" d="M362.704,121.219c0,0-6.202,4.033-8.931,4.726
		c-3.22,0.816-6.25,0.506-7.316,0.298c-1.899-0.369-3.772-1.193-5.606-3.182c-2.207-2.387-2.975-3.96-3.178-6.526
		c-0.234-2.922,0.566-4.43,1.456-5.802c0.829-1.273,2.213-2.208,4.244-2.391c1.372-0.124,2.595,0.951,3.983,1.881
		c1.478,0.987,2.807,1.772,4.366,2.471c1.206,0.54,4.167,1.754,6.115,1.542c1.952-0.21,2.195-0.306,2.195-0.306"/>
	<path fill="#FFFFFF" stroke="#FFFFFF" stroke-miterlimit="10" d="M362.704,121.219c0,0-0.762,0.568-2.146,1.493
		c-0.695,0.458-1.547,1.001-2.541,1.605c-1.008,0.584-2.122,1.273-3.514,1.788l-0.529,0.197c-0.234,0.081-0.373,0.085-0.567,0.132
		c-0.363,0.074-0.732,0.15-1.108,0.227c-0.733,0.193-1.571,0.221-2.417,0.292c-0.854,0.084-1.701,0.019-2.593-0.024l-0.673-0.076
		c-0.128-0.019-0.192-0.011-0.373-0.057l-0.316-0.08c-0.428-0.124-0.843-0.17-1.294-0.361c-1.896-0.607-3.399-1.892-4.71-3.358
		c-1.245-1.271-2.451-3.262-2.762-5.231c-0.057-0.518-0.196-0.953-0.176-1.541l0.009-1.42c0.1-0.998,0.326-2.101,0.772-2.99
		c0.18-0.484,0.481-0.861,0.716-1.292c0.052-0.079,0.019-0.044,0.14-0.215l0.111-0.133l0.224-0.265
		c0.156-0.175,0.277-0.353,0.463-0.524c0.836-0.736,1.759-1.204,2.703-1.423c0.498-0.071,0.903-0.214,1.464-0.211
		c0.112,0.004,0.21,0.001,0.334,0.013l0.421,0.083c0.297,0.054,0.479,0.171,0.721,0.255c0.868,0.417,1.528,0.962,2.185,1.432
		c1.297,0.902,2.617,1.792,3.844,2.4c1.208,0.683,2.425,1.176,3.488,1.565c1.075,0.376,2.055,0.595,2.861,0.61
		c0.804,0.008,1.475-0.088,1.914-0.104c0.446-0.021,0.677-0.075,0.677-0.075s-0.227,0.08-0.667,0.15
		c-0.447,0.06-1.062,0.245-1.917,0.299c-0.852,0.054-1.883-0.09-3.018-0.384c-1.137-0.309-2.393-0.699-3.693-1.364
		c-1.356-0.601-2.639-1.376-4.065-2.264c-0.688-0.447-1.366-0.934-2.065-1.222c-0.166-0.045-0.367-0.146-0.5-0.151l-0.216-0.051
		c-0.093-0.009-0.212-0.002-0.318-0.005c-0.313,0-0.762,0.146-1.141,0.207c-0.412,0.043-0.733,0.304-1.11,0.438
		c-0.373,0.159-0.596,0.446-0.919,0.643c-0.26,0.292-0.646,0.76-0.795,1.004c-0.201,0.384-0.489,0.749-0.624,1.15
		c-0.377,0.796-0.521,1.565-0.623,2.436l0.003,1.42c-0.022,0.363,0.118,0.857,0.165,1.279c0.036,0.219,0.056,0.442,0.103,0.657
		l0.221,0.609c0.149,0.405,0.258,0.831,0.52,1.179c0.235,0.366,0.423,0.737,0.686,1.102l0.899,1.081
		c1.148,1.302,2.508,2.531,4.036,3.045c0.36,0.177,0.834,0.252,1.241,0.381l0.315,0.087c0.029,0.015,0.183,0.03,0.269,0.046
		l0.605,0.099c0.81,0.077,1.644,0.183,2.416,0.142c0.782-0.028,1.539,0,2.305-0.16c0.772-0.141,1.491-0.164,2.117-0.418
		c1.298-0.421,2.478-1.011,3.513-1.5c1.031-0.516,1.92-0.986,2.648-1.384C361.873,121.677,362.704,121.219,362.704,121.219z"/>
</g>
<circle fill="#FF0000" stroke="#FFFFFF" stroke-width="0.25" stroke-miterlimit="10" cx="326.214" cy="94.275" r="1.735"/>
<circle fill="#FF0000" stroke="#FFFFFF" stroke-width="0.25" stroke-miterlimit="10" cx="231.923" cy="62.442" r="3.316"/>
<polygon fill="#D8D8D8" points="47.032,463.363 254.52,463.363 260.071,448.192 254.52,432.356 47.032,432.356 "/>
<g>
	<polygon fill="#E44D26" points="13.54,467.783 9.543,422.955 53.461,422.955 49.46,467.775 31.476,472.764 	"/>
	<polygon fill="#F16529" points="31.502,468.954 46.035,464.925 49.454,426.62 31.502,426.62 	"/>
	<polygon fill="#EBEBEB" points="31.502,443.249 24.227,443.249 23.724,437.617 31.502,437.617 31.502,432.118 31.482,432.118 
		17.715,432.118 17.847,433.595 19.198,448.746 31.502,448.746 	"/>
	<polygon fill="#EBEBEB" points="31.502,457.527 31.479,457.533 25.354,455.879 24.964,451.494 21.988,451.494 19.444,451.494 
		20.214,460.125 31.477,463.255 31.502,463.248 	"/>
	<polygon fill="#FFFFFF" points="31.482,443.249 31.482,448.746 38.253,448.746 37.615,455.878 31.482,457.532 31.482,463.251 
		42.753,460.125 42.838,459.197 44.129,444.723 44.264,443.249 42.78,443.249 	"/>
	<polygon fill="#FFFFFF" points="31.482,432.118 31.482,435.534 31.482,437.604 31.482,437.617 44.746,437.617 44.746,437.617 
		44.765,437.617 44.875,436.382 45.124,433.595 45.256,432.118 	"/>
</g>
<path fill="#231F20" d="M72.134,450.678h1.845v-4.427l-2.079-2.08l-1.305,1.305l1.539,1.54V450.678z M73.984,451.604h-2.688h-3.748
	l-1.538-1.536l0.652-0.653l1.27,1.271h2.615l-2.575-2.579l0.656-0.657l2.576,2.573v-2.612l-1.265-1.267l0.646-0.646l-3.197-3.213
	h-3.156l0,0h-3.271l1.84,1.839v0.006h0.01h3.807l1.349,1.348l-1.972,1.974l-1.347-1.351v-1.046h-1.846v1.812l3.193,3.191
	l-1.299,1.302l2.078,2.08h3.154h5.896l0,0L73.984,451.604z"/>
<path fill="#231F20" d="M140.158,442.249l-3.189,1.027l6.908,2.239v4.405l-4.604,1.488l-3.884-1.257v-4.319l3.755,1.216l3.188-1.029
	l-6.917-2.239l-1.985,0.644v7.156l5.843,1.891l6.567-2.124v-7.264L140.158,442.249z"/>
<path d="M88.146,442.713l-0.382,1.909h7.772l-0.243,1.233h-7.777l-0.377,1.909h7.771l-0.434,2.178l-3.132,1.036l-2.714-1.036
	l0.186-0.944h-1.91l-0.454,2.291l4.489,1.718l5.176-1.718l0.687-3.446l0.14-0.691l0.882-4.438H88.146z"/>
<path fill="#231F20" d="M118.573,444.661l2.412-2.412H118.4l-2.505,2.506l-2.509-2.506H110.8l2.413,2.412h-3.269v8.81h1.718h1.866
	h0.717l1.641-1.643l1.643,1.643h0.953h1.634h1.718v-8.81H118.573z M115.891,449.237l-2.4,2.401h-1.718v-5.146h8.239v5.146h-1.719
	L115.891,449.237z"/>
<g>
	<polygon id="chevron" points="210.879,441.206 204.219,444.572 204.219,446.786 210.879,443.419 217.536,446.786 217.536,444.572 	
		"/>
	<g>
		<polygon id="chevron_1_" points="210.879,445.072 204.219,448.434 204.219,450.646 210.879,447.281 217.536,450.646 
			217.536,448.434 		"/>
	</g>
	<g>
		<polygon id="chevron_2_" points="210.879,448.935 204.219,452.298 204.219,454.514 210.879,451.149 217.536,454.514 
			217.536,452.298 		"/>
	</g>
</g>
<path d="M169.678,443.032H166.9l-1.967,1.961h2.78L169.678,443.032z M163.396,444.993l1.961-1.961h-2.778l-1.967,1.961H163.396z
	 M167.716,450.722h-8.673v-5.707l1.987-1.981h-2.784l-1.164,1.164v8.492h12.601v-7.695h-1.967V450.722z"/>
<path fill="#231F20" d="M242.298,445.296h-2.494c-1.022-2.458-3.459-4.122-6.167-4.122c-3.684,0-6.684,2.994-6.684,6.686
	c0,3.688,3,6.688,6.684,6.688c2.708,0,5.14-1.657,6.167-4.122h2.489v-5.128L242.298,445.296L242.298,445.296z M240.315,448.436
	h-6.679c-0.318,0-0.58-0.255-0.58-0.576c0-0.318,0.256-0.579,0.58-0.579h6.673v1.155H240.315z M233.636,452.564
	c-2.593,0-4.701-2.108-4.701-4.701c0-2.594,2.108-4.703,4.701-4.703c1.607,0,3.084,0.837,3.939,2.141h-3.939
	c-1.409,0-2.562,1.146-2.562,2.563c0,1.408,1.147,2.561,2.562,2.561h3.939C236.725,451.73,235.249,452.564,233.636,452.564z"/>
<path d="M194.248,446.662l-2.11-0.875l0.868-2.1c-0.222-0.313-0.461-0.604-0.726-0.871c-0.015-0.019-0.031-0.034-0.048-0.053
	c-0.027-0.026-0.057-0.053-0.085-0.08c-0.258-0.254-0.543-0.482-0.842-0.698l-2.098,0.868l-0.876-2.11
	c-0.762-0.128-1.529-0.133-2.27-0.019c-0.014,0.001-0.026,0.004-0.037,0.004c-0.032,0.004-0.063,0.011-0.092,0.018l-0.875,2.104
	l-2.112-0.872c-0.63,0.45-1.178,0.989-1.625,1.603c-0.003,0.007-0.009,0.013-0.014,0.019c-0.018,0.026-0.036,0.054-0.053,0.078
	l0.872,2.105l-2.11,0.878c-0.126,0.759-0.13,1.523-0.02,2.267c0.001,0.015,0.003,0.027,0.006,0.04
	c0.003,0.031,0.009,0.062,0.016,0.091l2.107,0.873l-0.872,2.105c0.201,0.282,0.416,0.55,0.652,0.796
	c0.042,0.045,0.081,0.089,0.125,0.133c0.03,0.034,0.063,0.061,0.096,0.09c0.253,0.247,0.532,0.471,0.826,0.682l2.104-0.871
	l0.871,2.107c0.031,0.005,0.065,0.012,0.096,0.02c0.006-0.001,0.016,0,0.024,0.002c0.746,0.113,1.515,0.11,2.281-0.019l0.874-2.11
	l2.106,0.874c0.027-0.018,0.055-0.035,0.081-0.056c0.008-0.006,0.015-0.012,0.024-0.02c0.605-0.444,1.146-0.988,1.595-1.619
	l-0.874-2.112l2.108-0.872c0.006-0.027,0.011-0.063,0.018-0.095c0.001-0.011,0.001-0.019,0.003-0.027
	C194.379,448.193,194.376,447.426,194.248,446.662z M192.542,448.253l-2.222,0.922l0.003,0.009l-0.007,0.002l0.92,2.223
	c-0.172,0.199-0.359,0.385-0.56,0.559l-2.221-0.92l-0.003,0.009l-0.007-0.005l-0.92,2.223c-0.263,0.019-0.524,0.018-0.79,0
	l-0.922-2.223l-0.007,0.005l-0.002-0.01l-2.23,0.923c-0.023-0.021-0.049-0.037-0.072-0.058c-0.073-0.066-0.144-0.141-0.213-0.211
	c-0.07-0.068-0.143-0.138-0.21-0.212c-0.019-0.021-0.038-0.05-0.057-0.071l0.921-2.23l-0.006-0.002l0.002-0.009l-2.222-0.92
	c-0.019-0.265-0.02-0.529,0-0.789l2.22-0.92v-0.007l0.005-0.003l-0.921-2.223c0.174-0.201,0.36-0.391,0.56-0.56l2.221,0.919
	l0.003-0.008l0.004,0.003l0.922-2.222c0.265-0.019,0.528-0.019,0.792,0.001l0.919,2.222l0.009,0.004l2.221-0.919
	c0.097,0.084,0.19,0.174,0.283,0.265c0.093,0.097,0.187,0.191,0.275,0.295l-0.919,2.22l0.006,0.002l-0.002,0.008l2.221,0.922
	C192.562,447.725,192.562,447.99,192.542,448.253z M188.996,447.089l-0.002-0.007l0.538-1.293c-0.099-0.117-0.208-0.225-0.325-0.33
	l-1.299,0.536l-0.001-0.001h-0.004l-0.536-1.296c-0.154-0.013-0.309-0.013-0.462,0l-0.537,1.296h-0.004l-0.003,0.001l-1.295-0.534
	c-0.116,0.097-0.223,0.207-0.328,0.322l0.538,1.298l-0.004,0.003l0.001,0.004l-1.301,0.541c-0.002,0.016-0.005,0.035-0.005,0.052
	c-0.003,0.059,0,0.116-0.001,0.175c0,0.058-0.002,0.117,0.002,0.175c0,0.018,0.002,0.038,0.004,0.055l1.301,0.539v0.005l0.003,0.003
	l-0.536,1.297c0.1,0.117,0.209,0.226,0.327,0.323l1.296-0.537l0.001,0.006l0.004-0.002l0.539,1.299c0.156,0.011,0.309,0.011,0.462,0
	l0.536-1.299l0.004,0.002l0.002-0.006l1.296,0.536c0.118-0.1,0.225-0.209,0.327-0.324l-0.538-1.296l0.003-0.002l-0.001-0.006
	l1.296-0.537c0.004-0.078,0.006-0.156,0.008-0.23c0-0.077-0.001-0.153-0.007-0.229L188.996,447.089z M187.13,448.734
	c-0.482,0-0.875-0.392-0.875-0.875s0.391-0.876,0.875-0.876s0.876,0.392,0.876,0.876
	C188.006,448.343,187.614,448.734,187.13,448.734z"/>
<path fill="#D20909" stroke="#000" stroke-miterlimit="10" d="M503.392,67.464h6.024V52.995l-6.788-6.789l-4.262,4.261
	l5.024,5.024L503.392,67.464L503.392,67.464z M509.432,70.484h-8.776h-12.24l-5.027-5.024l2.131-2.13l4.151,4.149h8.536
	l-8.409-8.427l2.146-2.146l8.413,8.411v-8.538l-4.137-4.133l2.114-2.115l-10.447-10.494h-10.302l0,0H466.9l6.01,6.009v0.018h0.03
	h12.434l4.404,4.403l-6.438,6.439l-4.405-4.405v-3.418h-6.025v5.915l10.432,10.431l-4.247,4.245l6.791,6.789h10.301h19.256l0,0
	L509.432,70.484z"/>
<g>
	<g>
		<path fill="none" stroke="#E9F9FF" stroke-width="1.25" stroke-miterlimit="10" d="M393.544,250.228"/>
	</g>
</g>
<g>
	<g>
		<path fill="none" stroke="#E9F9FF" stroke-width="1.25" stroke-miterlimit="10" d="M586.299,176.173"/>
	</g>
</g>
<g>
	<g>
		<path fill="none" stroke="#E9F9FF" stroke-width="1.25" stroke-miterlimit="10" d="M629.609,166.777"/>
	</g>
</g>
<g>
	<g>
		<path fill="none" stroke="#E9F9FF" stroke-width="1.25" stroke-miterlimit="10" d="M424.695,250.228"/>
	</g>
</g>
<g>
	<g>
		
			<line fill="none" stroke="#FFD2B4" stroke-width="2" stroke-miterlimit="10" stroke-dasharray="7,3" x1="566.488" y1="112.382" x2="432.918" y2="112.382"/>
		<g>
			<polygon fill="#FFD2B4" points="556.5,105.729 564.387,112.382 556.5,119.034 579.41,112.382 			"/>
			<polygon fill="#FFFFFF" points="559.745,107.657 576.889,112.382 565.594,112.382 			"/>
		</g>
	</g>
</g>
<g>
	<g>
		
			<line fill="none" stroke="#FFD2B4" stroke-width="2" stroke-miterlimit="10" stroke-dasharray="7,3" x1="422.856" y1="101.563" x2="557.284" y2="101.563"/>
		<g>
			<polygon fill="#FFD2B4" points="432.845,94.911 424.958,101.563 432.845,108.216 409.935,101.563 			"/>
			<polygon fill="#FFFFFF" points="429.6,96.845 412.456,101.563 423.751,101.563 			"/>
		</g>
	</g>
</g>
<g>
	<g>
		
			<line fill="none" stroke="#9EE3FF" stroke-width="2" stroke-miterlimit="10" stroke-dasharray="7,3" x1="570.926" y1="165.266" x2="291.997" y2="241.999"/>
		<g>
			<polygon fill="#9EE3FF" points="559.53,161.5 568.899,165.823 563.06,174.329 583.385,161.838 			"/>
			<polygon fill="#FFFFFF" points="563.171,162.499 580.953,162.507 570.063,165.502 			"/>
		</g>
	</g>
</g>
<g>
	<g>
		
			<line fill="none" stroke="#9EE3FF" stroke-width="2" stroke-miterlimit="10" stroke-dasharray="7,3" x1="263.758" y1="238.484" x2="548.294" y2="161.838"/>
		<g>
			<polygon fill="#9EE3FF" points="271.672,229.463 265.788,237.938 275.133,242.311 251.281,241.846 			"/>
			<polygon fill="#FFFFFF" points="269.042,232.175 253.716,241.189 264.622,238.252 			"/>
		</g>
	</g>
</g>
<g>
	<g>
		
			<line fill="none" stroke="#9EE3FF" stroke-width="2" stroke-miterlimit="10" stroke-dasharray="7,3" x1="588.568" y1="181.651" x2="436.119" y2="242.976"/>
		<g>
			<polygon fill="#9EE3FF" points="576.819,179.208 586.618,182.436 581.784,191.551 600.557,176.829 			"/>
			<polygon fill="#FFFFFF" points="580.549,179.785 598.218,177.77 587.738,181.985 			"/>
		</g>
	</g>
</g>
<g>
	<g>
		
			<line fill="none" stroke="#9EE3FF" stroke-width="2" stroke-miterlimit="10" stroke-dasharray="7,3" x1="409.326" y1="242.543" x2="561.264" y2="184.973"/>
		<g>
			<polygon fill="#9EE3FF" points="416.309,232.783 411.291,241.798 421.023,245.225 397.242,247.121 			"/>
			<polygon fill="#FFFFFF" points="413.959,235.74 399.6,246.228 410.162,242.226 			"/>
		</g>
	</g>
</g>
<g>
	<g>
		
			<line fill="none" stroke="#9EE3FF" stroke-width="2" stroke-miterlimit="10" stroke-dasharray="7,3" x1="621.271" y1="193.489" x2="567.625" y2="239.717"/>
		<g>
			<polygon fill="#9EE3FF" points="609.362,194.97 619.68,194.861 618.048,205.049 631.061,185.054 			"/>
			<polygon fill="#FFFFFF" points="613.079,194.312 629.15,186.7 620.594,194.073 			"/>
		</g>
	</g>
</g>
<g>
	<g>
		
			<line fill="none" stroke="#9EE3FF" stroke-width="2" stroke-miterlimit="10" stroke-dasharray="7,3" x1="542.518" y1="248.311" x2="602.729" y2="199"/>
		<g>
			<polygon fill="#9EE3FF" points="546.03,236.836 544.144,246.979 554.46,247.129 532.521,256.498 			"/>
			<polygon fill="#FFFFFF" points="544.745,240.388 534.472,254.9 543.21,247.744 			"/>
		</g>
	</g>
</g>
</svg>
